<svg width="22" height="22" viewBox="0 0 40 40" fill="current" xmlns="http://www.w3.org/2000/svg">
<path d="M38.4375 20C38.4375 20.2486 38.3387 20.4871 38.1629 20.6629C37.9871 20.8387 37.7486 20.9375 37.5 20.9375H34.6266C34.3969 22.6656 33.5479 24.2516 32.2372 25.4011C30.9266 26.5505 29.2433 27.1853 27.5 27.1875H20.9375V31.5625H25C26.2432 31.5625 27.4355 32.0564 28.3146 32.9354C29.1936 33.8145 29.6875 35.0068 29.6875 36.25C29.6875 36.4986 29.5887 36.7371 29.4129 36.9129C29.2371 37.0887 28.9986 37.1875 28.75 37.1875C28.5014 37.1875 28.2629 37.0887 28.0871 36.9129C27.9113 36.7371 27.8125 36.4986 27.8125 36.25C27.8125 35.5041 27.5162 34.7887 26.9887 34.2613C26.4613 33.7338 25.7459 33.4375 25 33.4375H20.9375V36.25C20.9375 36.4986 20.8387 36.7371 20.6629 36.9129C20.4871 37.0887 20.2486 37.1875 20 37.1875C19.7514 37.1875 19.5129 37.0887 19.3371 36.9129C19.1613 36.7371 19.0625 36.4986 19.0625 36.25V33.4375H15C14.2541 33.4375 13.5387 33.7338 13.0113 34.2613C12.4838 34.7887 12.1875 35.5041 12.1875 36.25C12.1875 36.4986 12.0887 36.7371 11.9129 36.9129C11.7371 37.0887 11.4986 37.1875 11.25 37.1875C11.0014 37.1875 10.7629 37.0887 10.5871 36.9129C10.4113 36.7371 10.3125 36.4986 10.3125 36.25C10.3125 35.0068 10.8064 33.8145 11.6854 32.9354C12.5645 32.0564 13.7568 31.5625 15 31.5625H19.0625V27.1875H12.5C10.7567 27.1853 9.07345 26.5505 7.76279 25.4011C6.45213 24.2516 5.60313 22.6656 5.37344 20.9375H2.5C2.25136 20.9375 2.0129 20.8387 1.83709 20.6629C1.66127 20.4871 1.5625 20.2486 1.5625 20C1.5625 19.7514 1.66127 19.5129 1.83709 19.3371C2.0129 19.1613 2.25136 19.0625 2.5 19.0625H6.25C6.49864 19.0625 6.7371 19.1613 6.91291 19.3371C7.08873 19.5129 7.1875 19.7514 7.1875 20C7.1875 21.409 7.74721 22.7602 8.7435 23.7565C9.73978 24.7528 11.091 25.3125 12.5 25.3125H27.5C28.909 25.3125 30.2602 24.7528 31.2565 23.7565C32.2528 22.7602 32.8125 21.409 32.8125 20C32.8125 19.7514 32.9113 19.5129 33.0871 19.3371C33.2629 19.1613 33.5014 19.0625 33.75 19.0625H37.5C37.7486 19.0625 37.9871 19.1613 38.1629 19.3371C38.3387 19.5129 38.4375 19.7514 38.4375 20ZM10.8484 21.4328C10.6425 21.1958 10.49 20.9173 10.4013 20.6161C10.3126 20.315 10.2898 19.9983 10.3344 19.6875L12.4781 4.6875C12.5554 4.16773 12.8164 3.69284 13.2136 3.34887C13.6109 3.00491 14.1183 2.81463 14.6438 2.8125H25.3563C25.8817 2.81463 26.3891 3.00491 26.7864 3.34887C27.1836 3.69284 27.4446 4.16773 27.5219 4.6875L29.6656 19.6875C29.7104 19.998 29.6879 20.3145 29.5997 20.6156C29.5114 20.9166 29.3594 21.1951 29.154 21.4323C28.9486 21.6694 28.6945 21.8596 28.4092 21.9899C28.1238 22.1202 27.8137 22.1876 27.5 22.1875H12.5C12.1867 22.1873 11.8771 22.1198 11.5922 21.9896C11.3073 21.8594 11.0536 21.6695 10.8484 21.4328ZM12.2641 20.2047C12.2934 20.2385 12.3296 20.2656 12.3703 20.2842C12.411 20.3028 12.4552 20.3125 12.5 20.3125H27.5C27.5448 20.3125 27.589 20.3028 27.6297 20.2842C27.6704 20.2656 27.7066 20.2385 27.7359 20.2047C27.7652 20.1709 27.7869 20.1313 27.7996 20.0884C27.8123 20.0456 27.8156 20.0005 27.8094 19.9562L25.6656 4.95625C25.655 4.88116 25.6175 4.8125 25.56 4.76305C25.5025 4.71361 25.429 4.68675 25.3531 4.6875H14.6438C14.5679 4.68675 14.4944 4.71361 14.4369 4.76305C14.3794 4.8125 14.3419 4.88116 14.3313 4.95625L12.1875 19.9562C12.1817 20.0007 12.1855 20.0459 12.1987 20.0888C12.2119 20.1317 12.2342 20.1712 12.2641 20.2047Z" fill="current"/>
</svg>
