<svg width="22" height="22" viewBox="0 0 27 21" fill="current" xmlns="http://www.w3.org/2000/svg">
<path d="M3.11538 0C1.39569 0 0 1.53089 0 3.41716V17.0858C0 18.972 1.39569 20.5029 3.11538 20.5029H23.8846C25.6043 20.5029 27 18.972 27 17.0858V3.41716C27 1.53089 25.6043 0 23.8846 0H3.11538ZM3.11538 2.2781H23.8846C24.4568 2.2781 24.9231 2.78954 24.9231 3.41716V3.98668L13.5 10.7504L2.07692 3.98668V3.41716C2.07692 2.78954 2.54319 2.2781 3.11538 2.2781ZM2.07692 4.30675L8.85912 10.1091L2.20673 17.5847L10.3202 11.2481L13.5 13.4909L16.6808 11.2481L24.7933 17.5847L18.1409 10.1091L24.9231 4.30675V17.0858C24.9173 17.2612 24.8728 17.4324 24.7933 17.5847C24.6219 17.9549 24.2886 18.2248 23.8846 18.2248H3.11538C2.71142 18.2248 2.37808 17.956 2.20673 17.5847C2.12738 17.4327 2.08283 17.2608 2.07692 17.0858V4.30675Z" fill="current"/>
</svg>
