<svg width="22" height="22" viewBox="0 0 22 22" fill="none" xmlns="http://www.w3.org/2000/svg">
<path fill-rule="evenodd" clip-rule="evenodd" d="M10.9999 1.83331C5.93717 1.83331 1.83325 5.93723 1.83325 11C1.83248 12.3506 2.13016 13.6847 2.705 14.9068L1.8525 19.0657C1.82215 19.2142 1.82909 19.3679 1.87271 19.5131C1.91632 19.6582 1.99525 19.7903 2.10242 19.8975C2.20959 20.0047 2.34167 20.0836 2.48682 20.1272C2.63197 20.1708 2.78568 20.1777 2.93417 20.1474L7.09309 19.2949C8.27925 19.8541 9.60475 20.1657 10.9999 20.1657C16.0627 20.1657 20.1666 16.0627 20.1666 10.9991C20.1666 5.93723 16.0627 1.8324 10.9999 1.8324" fill="#F8F8F8"/>
</svg>
