<svg width="22" height="22" viewBox="0 0 46 28" fill="current" xmlns="http://www.w3.org/2000/svg">
<path d="M13 26.6445V24.4863C13 21.6244 14.0536 18.8796 15.9289 16.8559C17.8043 14.8322 20.3478 13.6953 23 13.6953M23 13.6953C25.6522 13.6953 28.1957 14.8322 30.0711 16.8559C31.9464 18.8796 33 21.6244 33 24.4863V26.6445M23 13.6953C24.5913 13.6953 26.1174 13.0132 27.2426 11.7989C28.3679 10.5847 29 8.93788 29 7.2207C29 5.50353 28.3679 3.85669 27.2426 2.64246C26.1174 1.42824 24.5913 0.746094 23 0.746094C21.4087 0.746094 19.8826 1.42824 18.7574 2.64246C17.6321 3.85669 17 5.50353 17 7.2207C17 8.93788 17.6321 10.5847 18.7574 11.7989C19.8826 13.0132 21.4087 13.6953 23 13.6953ZM1 26.6445V24.4863C1 22.7692 1.63214 21.1223 2.75736 19.9081C3.88258 18.6939 5.4087 18.0117 7 18.0117M7 18.0117C8.06087 18.0117 9.07828 17.557 9.82843 16.7475C10.5786 15.938 11 14.8401 11 13.6953C11 12.5505 10.5786 11.4526 9.82843 10.6432C9.07828 9.83367 8.06087 9.37891 7 9.37891C5.93913 9.37891 4.92172 9.83367 4.17157 10.6432C3.42143 11.4526 3 12.5505 3 13.6953C3 14.8401 3.42143 15.938 4.17157 16.7475C4.92172 17.557 5.93913 18.0117 7 18.0117ZM45 26.6445V24.4863C45 22.7692 44.3679 21.1223 43.2426 19.9081C42.1174 18.6939 40.5913 18.0117 39 18.0117M39 18.0117C40.0609 18.0117 41.0783 17.557 41.8284 16.7475C42.5786 15.938 43 14.8401 43 13.6953C43 12.5505 42.5786 11.4526 41.8284 10.6432C41.0783 9.83367 40.0609 9.37891 39 9.37891C37.9391 9.37891 36.9217 9.83367 36.1716 10.6432C35.4214 11.4526 35 12.5505 35 13.6953C35 14.8401 35.4214 15.938 36.1716 16.7475C36.9217 17.557 37.9391 18.0117 39 18.0117Z" stroke="current" stroke-width="1.5" stroke-linecap="round" stroke-linejoin="round"/>
</svg>
