<svg width="22" height="22" viewBox="0 0 23 31" fill="current" xmlns="http://www.w3.org/2000/svg">
<path d="M23 7.55371V26.438C23 26.9593 22.9079 27.4461 22.7236 27.8986C22.5393 28.351 22.2859 28.7493 21.9633 29.0936C21.6408 29.4378 21.263 29.7083 20.8299 29.905C20.3968 30.1017 19.9407 30.205 19.4615 30.2148H3.53846C3.05008 30.2148 2.59395 30.1165 2.17007 29.9198C1.74619 29.7231 1.373 29.4526 1.05048 29.1083C0.727965 28.7641 0.474559 28.3658 0.290264 27.9133C0.10597 27.4609 0.00921474 26.9691 0 26.438V7.55371H3.53846V5.66528C3.53846 4.88827 3.67668 4.15552 3.95312 3.46704C4.22957 2.77855 4.61198 2.17858 5.10036 1.66713C5.58874 1.15568 6.15084 0.75242 6.78666 0.457354C7.42248 0.162287 8.10897 0.00983556 8.84615 0C9.80449 0 10.6937 0.255725 11.5138 0.767174C12.3339 0.255725 13.2139 0 14.1538 0C14.8818 0 15.5683 0.147533 16.2133 0.4426C16.8584 0.737667 17.4205 1.14584 17.8996 1.66713C18.3788 2.18841 18.7566 2.78838 19.0331 3.46704C19.3095 4.14569 19.4523 4.87844 19.4615 5.66528V7.55371H23ZM17.6923 5.66528C17.6923 5.15383 17.6002 4.66697 17.4159 4.2047C17.2316 3.74243 16.9782 3.34409 16.6556 3.00968C16.3331 2.67527 15.9553 2.40479 15.5222 2.19825C15.0891 1.9917 14.633 1.88843 14.1538 1.88843C13.7392 1.88843 13.3476 1.96219 12.979 2.10973C13.2462 2.46381 13.4581 2.81297 13.6148 3.15722C13.7714 3.50146 13.8866 3.8457 13.9603 4.18995C14.0341 4.53419 14.0847 4.88336 14.1124 5.23744C14.14 5.59152 14.1538 5.97019 14.1538 6.37344V7.55371H17.6923V5.66528ZM5.30769 7.55371H12.3846V5.66528C12.3846 5.15383 12.2925 4.66697 12.1082 4.2047C11.9239 3.74243 11.6705 3.34409 11.348 3.00968C11.0254 2.67527 10.6476 2.40479 10.2145 2.19825C9.78145 1.9917 9.32532 1.88843 8.84615 1.88843C8.35777 1.88843 7.90164 1.98678 7.47776 2.18349C7.05389 2.38021 6.68069 2.65068 6.35817 2.99493C6.03566 3.33917 5.78225 3.74243 5.59796 4.2047C5.41366 4.66697 5.31691 5.15383 5.30769 5.66528V7.55371ZM16.393 28.3264C16.0797 27.7363 15.9231 27.1068 15.9231 26.438V9.44214H1.76923V26.438C1.76923 26.7035 1.8153 26.9494 1.90745 27.1757C1.9996 27.4019 2.124 27.5986 2.28065 27.7658C2.4373 27.933 2.6262 28.0707 2.84736 28.1789C3.06851 28.2871 3.29888 28.3363 3.53846 28.3264H16.393ZM21.2308 9.44214H17.6923V26.438C17.6923 26.7035 17.7384 26.9494 17.8305 27.1757C17.9227 27.4019 18.0471 27.5986 18.2037 27.7658C18.3604 27.933 18.5493 28.0707 18.7704 28.1789C18.9916 28.2871 19.222 28.3363 19.4615 28.3264C19.7103 28.3264 19.9407 28.2772 20.1526 28.1789C20.3646 28.0805 20.5489 27.9477 20.7055 27.7805C20.8622 27.6133 20.9912 27.4117 21.0925 27.1757C21.1939 26.9396 21.24 26.6937 21.2308 26.438V9.44214Z" fill="current"/>
</svg>
