<svg width="36" height="31" viewBox="0 0 36 31" fill="none" xmlns="http://www.w3.org/2000/svg">
<path d="M12.3017 9.6945H23.6982L18.8414 0H17.1605L12.3017 9.6945ZM17.1509 31.0059V11.3888H0.807499L17.1509 31.0059ZM18.8472 31.0059L35.1963 11.3888H18.8472V31.0059ZM25.5708 9.69258H35.6736L31.6965 1.702C31.4103 1.18578 31.0263 0.773056 30.5446 0.463834C30.0629 0.154611 29.5217 0 28.9212 0H20.7351L25.5708 9.69258ZM0.326416 9.69258H10.4292L15.2649 0H7.07883C6.47828 0 5.93778 0.154611 5.45733 0.463834C4.97689 0.773056 4.59228 1.18642 4.3035 1.70392L0.326416 9.69258Z" fill="#FFD700"/>
</svg>
